<?xml version="1.0" standalone="no"?>
<!DOCTYPE svg PUBLIC "-//W3C//DTD SVG 20010904//EN"
 "http://www.w3.org/TR/2001/REC-SVG-20010904/DTD/svg10.dtd">
<svg version="1.0" xmlns="http://www.w3.org/2000/svg"
 width="331.000000pt" height="18.000000pt" viewBox="0 0 331.000000 18.000000"
 preserveAspectRatio="xMidYMid meet">
<metadata>
Created by potrace 1.16, written by Peter Selinger 2001-2019
</metadata>
<g transform="translate(0.000000,18.000000) scale(0.100000,-0.100000)"
fill="#000000" stroke="none">
<path style="fill:#c67412;" d="M2655 155 c-282 -20 -1416 -53 -1880 -56 -110 -1 -211 -5 -225 -9
-14 -5 62 -8 180 -9 520 -3 1715 -39 2019 -61 81 -6 132 -5 150 2 46 17 194
47 274 54 43 4 75 10 70 14 -4 4 -55 12 -112 19 -57 7 -141 23 -187 37 -46 13
-90 23 -97 23 -6 -1 -93 -7 -192 -14z"/>
</g>
</svg>