<?xml version="1.0" standalone="no"?>
<!DOCTYPE svg PUBLIC "-//W3C//DTD SVG 20010904//EN"
 "http://www.w3.org/TR/2001/REC-SVG-20010904/DTD/svg10.dtd">
<svg version="1.0" xmlns="http://www.w3.org/2000/svg"
 width="290.000000pt" height="12.000000pt" viewBox="0 0 290.000000 12.000000"
 preserveAspectRatio="xMidYMid meet">
<metadata>
Created by potrace 1.16, written by Peter Selinger 2001-2019
</metadata>
<g transform="translate(0.000000,12.000000) scale(0.100000,-0.100000)"
fill="#000000" stroke="none">
<path d="M78 102 c-37 -9 -70 -39 -66 -60 3 -15 24 -17 208 -20 113 -1 273 1
355 6 86 5 490 4 945 -1 1152 -15 1361 -11 1368 25 2 9 -5 19 -15 22 -47 13
-826 28 -993 18 -164 -9 -1344 -1 -1655 12 -66 2 -132 2 -147 -2z"/>
</g>
</svg>
