<?xml version="1.0" standalone="no"?>
<!DOCTYPE svg PUBLIC "-//W3C//DTD SVG 20010904//EN"
 "http://www.w3.org/TR/2001/REC-SVG-20010904/DTD/svg10.dtd">
<svg version="1.0" xmlns="http://www.w3.org/2000/svg"
 width="1890.000000pt" height="1417.000000pt" viewBox="0 0 1890.000000 1417.000000"
 preserveAspectRatio="xMidYMid meet">
<metadata>
Created by potrace 1.16, written by Peter Selinger 2001-2019
</metadata>
<g transform="translate(0.000000,1417.000000) scale(0.100000,-0.100000)"
fill="#000000" stroke="none">
<path d="M8093 7020 c-23 -15 -33 -30 -33 -48 l0 -25 368 7 c521 9 1243 7
1692 -5 356 -10 522 -8 738 7 77 6 83 8 80 28 -3 19 -11 22 -113 29 -60 4
-589 9 -1175 10 -586 2 -1168 6 -1295 11 -226 7 -231 7 -262 -14z"/>
</g>
</svg>
